<?xml version="1.0" encoding="utf-8"?>
<!-- Svg Vector Icons : http://www.onlinewebfonts.com/icon -->
<!DOCTYPE svg PUBLIC "-//W3C//DTD SVG 1.1//EN" "http://www.w3.org/Graphics/SVG/1.1/DTD/svg11.dtd">
<svg version="1.1" xmlns="http://www.w3.org/2000/svg" xmlns:xlink="http://www.w3.org/1999/xlink" x="0px" y="0px" viewBox="0 0 1000 1000" enable-background="new 0 0 1000 1000" xml:space="preserve" fill="#bbbbbb">
<metadata> Svg Vector Icons : http://www.onlinewebfonts.com/icon </metadata>
<g><g transform="translate(0.000000,511.000000) scale(0.100000,-0.100000)"><path d="M572.3,4364.4c-53.5-13.4-128.1-42.1-164.4-65c-80.3-49.7-191.2-168.3-231.4-246.7c-70.8-135.8-72.7-227.5-66.9-2797.5l5.7-2514.5l53.5-107.1c61.2-126.2,189.3-252.4,315.5-309.8l89.9-42.1H5001h4426.7l89.9,42.1c126.2,57.4,254.3,183.6,315.5,309.8l53.5,107.1v2591v2591l-53.5,107.1c-61.2,126.2-189.3,252.4-315.5,309.8l-89.9,42.1l-4378.9,3.8C1614.5,4387.4,648.8,4383.5,572.3,4364.4z M1723.5,3957.1c-3.8-19.1-15.3-65-21-101.3c-40.2-208.4-208.4-506.7-380.5-680.7c-174-172.1-472.3-340.4-680.7-380.5c-36.3-5.7-82.2-17.2-99.4-21c-32.5-9.6-34.4,24.9-34.4,518.2c0,434.1,5.7,537.3,28.7,583.2c55.5,109,82.2,112.8,665.4,114.7C1698.6,3989.6,1733,3987.7,1723.5,3957.1z M9379.9,3960.9c109-57.4,114.7-89.9,114.7-669.3c0-288.7-5.7-525.9-15.3-525.9c-7.7,0-78.4,17.2-154.9,38.3c-349.9,97.5-642.5,311.7-839.4,613.8c-80.3,126.2-177.8,365.2-202.7,501l-13.4,70.8h527.8C9230.7,3989.6,9334,3983.9,9379.9,3960.9z M4903.4,3140.6c72.7-38.2,97.5-105.2,97.5-260.1v-130l99.4-22.9c262-55.4,548.8-263.9,644.4-468.5c68.8-145.3,89.9-279.2,59.3-353.8c-28.7-68.8-118.6-133.9-187.4-133.9c-99.4,0-214.2,107.1-214.2,200.8c0,57.4-74.6,175.9-145.3,229.5c-174,131.9-460.8,177.8-690.3,109c-237.1-72.7-369-204.6-369-367.1c0-195,172.1-311.7,577.5-392c554.5-109,854.7-275.4,984.8-541.2c44-93.7,51.6-133.8,53.5-281.1c0-156.8-5.7-183.6-63.1-300.2c-110.9-225.6-344.2-405.4-631-485.7L5001-89.1V-221c0-200.8-63.1-283-216.1-283c-130,0-204.6,109-204.6,302.1v112.8l-116.6,32.5C4085,48.6,3805.8,329.7,3781,635.6c-9.6,118.5-7.7,122.4,59.3,189.3c74.6,74.6,149.2,86,239,40.2c59.3-30.6,88-78.4,120.5-202.7c28.7-112.8,149.1-229.5,298.3-288.7c149.2-57.4,428.3-63.1,569.8-9.6c262,99.4,393.9,300.2,307.9,466.6c-70.8,135.8-229.5,212.3-608.1,292.6c-531.6,114.7-791.6,260.1-931.2,523.9c-44,84.1-49.7,116.7-49.7,286.8c0,172.1,5.7,202.7,55.4,305.9c105.2,216.1,348,405.4,619.6,480l118.6,32.5v112.8c0,193.1,74.6,302.1,206.5,302.1C4821.2,3167.4,4872.8,3155.9,4903.4,3140.6z M2354.5,1685.4c122.4-70.8,187.4-181.7,195-332.7c9.6-160.6-44-271.5-172.1-357.6c-174-116.6-361.4-99.4-514.4,47.8c-177.8,174-175.9,418.8,5.7,590.9C1998.8,1756.2,2195.8,1777.2,2354.5,1685.4z M7978.2,1723.7c68.8-21,118.6-53.5,174-112.8c162.5-177.8,156.8-401.6-13.4-567.9c-153-147.2-340.4-164.5-514.4-47.8c-327,221.8-174,728.6,227.5,755.3C7867.3,1752.4,7924.7,1739,7978.2,1723.7z M797.9-179c464.7-168.3,818.4-585.1,923.6-1084.2l13.4-63.1h-529.7c-579.4,0-611.9,5.7-669.3,114.7c-22.9,45.9-28.7,149.2-28.7,583.2v527.8L580-114C618.2-121.6,717.6-150.3,797.9-179z M9494.6-628.3c0-434.1-5.7-537.3-28.7-583.2c-57.4-109-89.9-114.7-669.3-114.7h-527.8l13.4,72.7c44,240.9,240.9,602.3,416.9,764.9c114.7,107.1,325.1,240.9,453.2,290.7c105.2,42.1,275.4,91.8,319.3,93.7C9488.9-102.5,9494.6-219.1,9494.6-628.3z"/><path d="M109.6-2209.7c7.6-223.7,15.3-290.7,47.8-363.3c57.4-124.3,181.7-254.3,309.8-315.5l107.1-53.5h4407.6c3522.3,0,4422.9,5.7,4487.9,24.9c154.9,45.9,342.3,231.4,390.1,382.4c11.5,38.2,26.8,189.3,30.6,334.6l9.6,263.9l-91.8-57.4c-51.6-30.6-143.4-72.7-202.7-91.8l-110.9-34.4v-130c0-78.4-11.5-153-28.7-185.5c-57.4-109-89.9-114.7-669.3-114.7H8267l13.4,61.2c15.3,66.9,72.7,250.5,95.6,307.9c13.4,30.6-154.9,32.5-3375,32.5c-3220.1,0-3388.4-1.9-3375-32.5c22.9-57.4,80.3-240.9,95.6-306l13.4-63.1h-529.7c-579.4,0-611.9,5.7-669.3,114.7c-17.2,32.5-28.7,107.1-28.7,185.5v130l-110.9,34.4c-59.3,19.1-151.1,61.2-202.7,91.8l-93.7,57.4L109.6-2209.7z"/><path d="M109.6-3433.5c7.6-223.7,15.3-290.7,47.8-363.3c57.4-124.3,181.7-254.3,309.8-315.5l107.1-53.5h4407.6c3522.3,0,4422.9,5.7,4487.9,24.9c154.9,45.9,342.3,231.4,390.1,382.4c11.5,38.2,26.8,189.3,30.6,334.6l9.6,263.9l-91.8-57.4c-51.6-30.6-143.4-72.7-202.7-91.8l-110.9-34.4v-130c0-78.4-11.5-153-28.7-185.5c-57.4-109-89.9-114.7-669.3-114.7H8267l13.4,61.2c15.3,66.9,72.7,250.5,95.6,307.9c13.4,30.6-154.9,32.5-3375,32.5c-3220.1,0-3388.4-1.9-3375-32.5c22.9-57.4,80.3-240.9,95.6-305.9l13.4-63.1h-529.7c-579.4,0-611.9,5.7-669.3,114.7c-17.2,32.5-28.7,107.1-28.7,185.5v130l-110.9,34.4c-59.3,19.1-151.1,61.2-202.7,91.8l-93.7,57.4L109.6-3433.5z"/></g></g>
</svg>